<svg xmlns="http://www.w3.org/2000/svg" xmlns:xlink="http://www.w3.org/1999/xlink" style="isolation:isolate" viewBox="0 0 20 20" version="1.1" shape-rendering="crispEdges" width="40" height="40"><path d="M8 15v1H4v1H3v3h14v-3h-1v-1h-4v-1h3v-1h1v-1h1v-3h1V7h-1V4h-1V3h-1V2H5v1H4v1H3v3H2v3h1v3h1v1h1v1h3z" fill="#CB9E6E"/><path d="M5 15v-1H4v-1H3v-3H2V7h1V4h1V3h1V2h10v1h1v1h1v3h1v3h-1v3h-1v1h-1v1H5z" fill="#FFF" fill-opacity=".1"/><path d="M5 7h3v2H5V7zm7 0h3v2h-3V7z" fill="#FFF"/><path d="M5 8h2v1H5V8zm7 0h2v1h-2V8z" fill="#697b94"/><path d="M8 4v1H7v1H5V5h2V4h1zm4 0h1v1h2v1h-2V5h-1V4z" fill-rule="evenodd" fill="#120e11"/><path d="M3 13h1v1h1v1h10v-1h1v-1h1v-3h-1v1h-1v1H5v-1H4v-1H3v3z" id="Path" fill="#2c222b" fill-opacity="0.5"/><path d="M7 12v1h1v1h4v-1H8v-1H7z" fill="#e6a791"/><path d="M4 8H3V7h14v1h-1v2h-5V8H9v2H4V8zm1 0h3v1H5V8zm7 0h3v1h-3V8z" fill-rule="evenodd" fill="#5f705c"/><path d="M5 8h3v1H5V8zm7 0h3v1h-3V8z" fill-rule="evenodd" fill="#FFF" fill-opacity=".2"/><path d="M7 8v1h1V8H7zm7 0v1h1V8h-1z" fill-rule="evenodd" fill="#FFF" fill-opacity=".2"/><path d="M3 7v1h1V7H3zm13 0v1h1V7h-1zM9 7v1h2V7H9z" fill-rule="evenodd" fill="#FFF" fill-opacity=".2"/><path d="M3 20v-3h1v-1h4v1h4v-1h4v1h1v3H3z" fill="#1b85b8"/><path d="M2 7h1V5h2V4h1V3h1v1h2V3h4V2h1v1h1v1h1v1h1v2h1V6h1V4h-1V3h-1V2h-1V1h-1V0h-1v1h-2V0h-1v1H9V0H8v1H7V0H5v1H4v1H2v5z" fill="#2c222b"/></svg>